<svg width="45" height="50" xmlns="http://www.w3.org/2000/svg">
 <title>image2vector-1</title>

 <g>
  <title>background</title>
  <rect fill="none" id="canvas_background" height="402" width="582" y="-1" x="-1"/>
 </g>
 <g>
  <title>Layer 1</title>
  <path stroke="null" id="svg_1" d="m18.990959,2.062212c-3.42647,1.245426 -5.611185,3.901867 -7.038124,8.557054c-2.227887,7.268481 -1.415577,12.383122 2.663012,16.765435c1.890466,2.031396 4.760248,3.878545 6.643898,4.277361c1.005446,0.213402 1.009991,0.225063 0.421492,1.17196c-0.940689,1.515968 -1.63598,1.762021 -5.020415,1.780679c-2.396029,0.012827 -2.953853,-0.114281 -5.415776,-1.239595c-2.218798,-1.013366 -2.80048,-1.19295 -4.186519,-1.288572c-1.196311,-0.082795 -1.262204,-0.101453 -0.947505,-0.284535c0.972499,-0.565573 3.516222,-0.164424 5.996322,0.945731c0.595315,0.265877 1.307648,0.389487 1.307648,0.227395c0,-0.399982 -0.882748,-1.824992 -1.553045,-2.506011c-1.83707,-1.868138 -4.515987,-1.956764 -8.011759,-0.263545c-1.789353,0.866434 -2.236976,1.02736 -3.419653,1.231432l-1.014535,0.174919l0.811174,0.819789c1.948407,1.967259 4.419419,2.547992 7.911783,1.856477c1.771176,-0.349839 2.067697,-0.30436 4.1922,0.655364c0.929328,0.419806 2.025662,0.832616 2.434657,0.916577c0.898653,0.184248 0.8907,0.178418 0.685067,0.4338c-0.319243,0.395318 -1.414441,0.640205 -3.061783,0.684518c-2.807297,0.075798 -4.154708,1.134643 -4.59665,3.610335l-0.095432,0.535253l0.457847,-0.118945c0.74528,-0.193577 1.721188,-0.130606 3.229925,0.211069c3.457144,0.782472 5.52825,-0.066469 6.166737,-2.523503c0.103385,-0.39765 0.187456,-0.768479 0.188592,-0.825619c0.003408,-0.240223 -0.665753,-0.069968 -1.486015,0.377826c-2.272195,1.240761 -2.582349,1.365537 -3.569618,1.427342c-1.573495,0.099121 -2.152905,-0.264711 -0.623717,-0.391819c1.354228,-0.111948 2.009756,-0.38249 3.313996,-1.365537c2.152905,-1.624418 3.584387,-1.827324 7.30397,-1.035522c3.05951,0.651866 4.859089,0.899085 7.127875,0.979548l2.393757,0.085127l0.646439,1.124148c2.625521,4.566561 7.280112,8.902228 10.220332,9.517944c1.284926,0.269376 1.262204,0.113115 -0.223811,-1.521798c-1.618939,-1.783011 -0.577137,-0.990043 1.964312,1.492645c2.175627,2.125853 2.578941,2.35558 3.914992,2.223808c1.070204,-0.106118 1.058843,-0.215734 -0.161326,-1.505472c-3.07428,-3.250001 -5.173788,-5.84697 -6.952916,-8.603699l-1.124736,-1.742197l-1.463293,-0.319519c-2.735723,-0.598224 -2.565308,-0.742824 0.4249,-0.360334c3.523038,0.451292 4.189927,-0.160926 3.051558,-2.802208l-0.277208,-0.641371l-1.79049,0.117779c-2.872054,0.188913 -12.606137,0.114281 -13.477524,-0.102619l-0.731647,-0.181916l0.773682,-0.936401c0.941825,-1.140474 0.849801,-1.139308 1.972265,-0.026821l0.917967,0.909581l4.23878,-0.010495c2.331272,-0.005831 4.286496,-0.060639 4.344437,-0.120111c0.106793,-0.109616 -1.436027,-3.344458 -1.943863,-4.07562c-0.214722,-0.31019 -0.376048,-0.389487 -0.783907,-0.389487c-4.563703,0 -10.162392,-3.443579 -12.263036,-7.541355c-0.371504,-0.724166 -0.566913,-1.449498 -0.284024,-1.05418c3.67982,5.149625 10.775884,8.36231 17.708351,8.01597l0.91115,-0.045479l-1.391719,-2.360245c-6.642762,-11.262473 -8.684329,-13.907253 -12.076716,-15.636622c-2.340361,-1.19295 -2.961806,-1.977755 -2.365355,-2.981792c0.302202,-0.508432 0.612357,-0.591227 1.904099,-0.509598c0.521469,0.033818 0.948641,0.031485 0.948641,-0.003498c0,-0.094456 -1.777992,-1.155634 -2.117686,-1.264084c-0.775955,-0.246053 -0.697564,-0.409311 1.088381,-2.276284c0.938416,-0.980714 1.705282,-1.817995 1.705282,-1.861142c0,-0.207571 -1.073612,0.212235 -2.157449,0.844277c-1.754134,1.023861 -1.722324,1.023861 -2.631202,0.045479c-1.539412,-1.655903 -3.511677,-2.10253 -5.731612,-1.295569l0.004544,-0.003498zm6.43372,30.348504c0.071574,0.073466 -0.536238,1.124148 -0.91115,1.574274c-0.226083,0.271708 -0.373776,0.313689 -0.971363,0.277539l-0.70438,-0.041981l0.862298,-1.018031c0.842984,-0.994708 1.314465,-1.211608 1.72346,-0.791802l0.001136,0z" fill="#bdae82"/>
 </g>
</svg>